<?xml version="1.0" encoding="UTF-8"?>
<svg xmlns="http://www.w3.org/2000/svg" xmlns:xlink="http://www.w3.org/1999/xlink" width="215pt" height="100pt" viewBox="0 0 215 100" version="1.1">
<g id="surface1">
<path style=" stroke:none;fill-rule:nonzero;fill:rgb(10.196078%,32.941176%,56.078431%);fill-opacity:1;" d="M 106.828125 26.234375 C 104.679688 23.183594 100.824219 21.75 96.882812 21.75 C 92.226562 21.75 87.613281 23.855469 87.613281 29.058594 C 87.613281 40.449219 114.53125 33.945312 114.53125 54.171875 C 114.53125 66.367188 104.902344 72.285156 93.792969 72.285156 C 86.761719 72.285156 79.863281 70.132812 75.207031 64.574219 L 82.820312 57.175781 C 85.285156 60.941406 89.539062 63.09375 94.019531 63.09375 C 98.675781 63.09375 103.960938 60.539062 103.960938 55.335938 C 103.960938 42.914062 77.042969 50.042969 77.042969 29.730469 C 77.042969 18.027344 87.433594 12.554688 97.960938 12.554688 C 103.871094 12.554688 109.828125 14.261719 114.21875 18.429688 Z M 106.828125 26.234375 "/>
<path style=" stroke:none;fill-rule:nonzero;fill:rgb(10.196078%,32.941176%,56.078431%);fill-opacity:1;" d="M 137.019531 23.183594 L 119.636719 23.183594 L 119.636719 14.035156 L 164.476562 14.035156 L 164.476562 23.183594 L 147.097656 23.183594 L 147.097656 70.808594 L 137.019531 70.808594 Z M 137.019531 23.183594 "/>
<path style=" stroke:none;fill-rule:nonzero;fill:rgb(10.196078%,32.941176%,56.078431%);fill-opacity:1;" d="M 199.546875 26.234375 C 197.398438 23.183594 193.542969 21.75 189.601562 21.75 C 184.945312 21.75 180.332031 23.855469 180.332031 29.058594 C 180.332031 40.449219 207.25 33.945312 207.25 54.171875 C 207.25 66.367188 197.621094 72.285156 186.511719 72.285156 C 179.480469 72.285156 172.582031 70.132812 167.925781 64.574219 L 175.539062 57.175781 C 178.003906 60.941406 182.257812 63.09375 186.738281 63.09375 C 191.394531 63.09375 196.679688 60.539062 196.679688 55.335938 C 196.679688 42.914062 169.761719 50.042969 169.761719 29.730469 C 169.761719 18.027344 180.152344 12.554688 190.679688 12.554688 C 196.589844 12.554688 202.546875 14.261719 206.9375 18.429688 Z M 199.546875 26.234375 "/>
<path style=" stroke:none;fill-rule:nonzero;fill:rgb(6.27451%,33.72549%,56.862745%);fill-opacity:1;" d="M 48.554688 18.027344 C 56.347656 12.464844 54.199219 3.09375 54.199219 3.09375 C 35.96875 5.828125 36.820312 21.164062 36.820312 21.164062 C 27.859375 16.1875 20.023438 19.867188 20.023438 19.867188 C 4.03125 28.117188 9.363281 48.296875 9.363281 48.296875 L 17.511719 48.296875 C 16.976562 47.175781 16.707031 46.007812 16.707031 44.617188 C 16.707031 40.492188 19.527344 37.128906 23.023438 37.128906 C 26.515625 37.128906 29.339844 40.492188 29.339844 44.617188 C 29.339844 46.007812 29.023438 47.128906 28.441406 48.25 L 37.9375 48.25 L 37.9375 37.21875 C 37.9375 36.679688 38.566406 36.414062 38.925781 36.726562 C 40 37.625 41.476562 38.207031 43.132812 38.207031 C 46.402344 38.207031 49.046875 35.964844 49.046875 33.230469 C 49.046875 30.492188 46.402344 28.25 43.132812 28.25 C 41.476562 28.25 40 28.835938 38.925781 29.730469 C 38.519531 30.089844 37.9375 29.777344 37.9375 29.238281 L 37.9375 21.972656 C 42.371094 18.835938 48.554688 18.027344 48.554688 18.027344 Z M 48.554688 18.027344 "/>
<path style=" stroke:none;fill-rule:nonzero;fill:rgb(98.431373%,76.470588%,23.921569%);fill-opacity:1;" d="M 58.585938 48.25 L 68.53125 48.25 C 68.53125 48.25 72.023438 33.765625 64.410156 24.84375 C 56.796875 15.917969 44.253906 20.042969 39.417969 22.914062 L 39.417969 27.757812 C 40.445312 27.308594 41.613281 27.085938 42.820312 27.085938 C 46.941406 27.085938 50.300781 29.910156 50.300781 33.363281 C 50.300781 36.816406 46.941406 39.640625 42.820312 39.640625 C 41.566406 39.640625 40.402344 39.371094 39.417969 38.921875 L 39.417969 48.25 L 50.121094 48.25 C 50.792969 48.25 51.105469 49.011719 50.703125 49.550781 C 49.898438 50.582031 49.40625 52.019531 49.40625 53.542969 C 49.40625 56.816406 51.644531 59.460938 54.378906 59.460938 C 57.109375 59.460938 59.347656 56.816406 59.347656 53.542969 C 59.347656 52.019531 58.855469 50.628906 58.050781 49.550781 C 57.558594 49.011719 57.914062 48.25 58.585938 48.25 Z M 58.585938 48.25 "/>
<path style=" stroke:none;fill-rule:nonzero;fill:rgb(6.27451%,33.72549%,56.862745%);fill-opacity:1;" d="M 59.753906 49.777344 C 60.289062 50.851562 60.601562 52.152344 60.601562 53.496094 C 60.601562 57.625 57.78125 60.941406 54.332031 60.941406 C 50.882812 60.941406 48.0625 57.625 48.0625 53.496094 C 48.0625 52.152344 48.375 50.898438 48.914062 49.777344 L 39.328125 49.777344 L 39.328125 60.761719 C 39.328125 61.300781 38.699219 61.613281 38.296875 61.253906 C 37.222656 60.359375 35.742188 59.777344 34.085938 59.777344 C 30.816406 59.777344 28.175781 62.019531 28.175781 64.753906 C 28.175781 67.488281 30.816406 69.730469 34.085938 69.730469 C 35.742188 69.730469 37.222656 69.148438 38.296875 68.25 C 38.699219 67.890625 39.328125 68.207031 39.328125 68.746094 L 39.328125 71.390625 C 41.835938 71.300781 43.269531 71.929688 46.988281 73.453125 C 50.703125 74.976562 56.078125 71.300781 56.078125 71.300781 C 63.871094 65.425781 68.082031 49.777344 68.082031 49.777344 Z M 59.753906 49.777344 "/>
<path style=" stroke:none;fill-rule:nonzero;fill:rgb(98.431373%,76.470588%,23.921569%);fill-opacity:1;" d="M 34.222656 58.566406 C 35.566406 58.566406 36.820312 58.878906 37.894531 59.417969 L 37.894531 49.730469 L 27.234375 49.730469 C 26.5625 49.730469 26.246094 48.96875 26.652344 48.476562 C 27.503906 47.398438 28.039062 45.964844 28.039062 44.394531 C 28.039062 41.121094 25.800781 38.476562 23.066406 38.476562 C 20.335938 38.476562 18.097656 41.121094 18.097656 44.394531 C 18.097656 46.007812 18.632812 47.445312 19.484375 48.476562 C 19.886719 48.96875 19.527344 49.730469 18.902344 49.730469 L 9.136719 49.730469 C 9.136719 49.730469 13.394531 65.382812 21.140625 71.210938 C 21.140625 71.210938 26.515625 74.886719 30.234375 73.363281 C 33.953125 71.839844 35.386719 71.210938 37.894531 71.300781 L 37.894531 69.820312 C 36.820312 70.359375 35.566406 70.671875 34.222656 70.671875 C 30.234375 70.671875 27.007812 67.9375 27.007812 64.617188 C 27.007812 61.300781 30.234375 58.566406 34.222656 58.566406 Z M 34.222656 58.566406 "/>
<path style=" stroke:none;fill-rule:nonzero;fill:rgb(10.196078%,32.941176%,56.078431%);fill-opacity:1;" d="M 12.496094 93.8125 C 13.078125 94.707031 14.109375 95.15625 15.09375 95.15625 C 16.167969 95.15625 17.558594 94.441406 17.558594 93.09375 C 17.558594 90.269531 11.464844 92.019531 11.464844 87.21875 C 11.464844 85.785156 12.675781 83.765625 15.632812 83.765625 C 16.976562 83.765625 18.273438 84.035156 19.171875 85.15625 L 17.828125 86.414062 C 17.425781 85.785156 16.574219 85.335938 15.632812 85.335938 C 13.796875 85.335938 13.214844 86.457031 13.214844 87.21875 C 13.214844 90.359375 19.304688 88.476562 19.304688 92.914062 C 19.304688 95.292969 17.378906 96.726562 15.003906 96.726562 C 13.4375 96.726562 11.914062 96.1875 11.0625 95.023438 Z M 12.496094 93.8125 "/>
<path style=" stroke:none;fill-rule:nonzero;fill:rgb(10.196078%,32.941176%,56.078431%);fill-opacity:1;" d="M 23.335938 84.082031 L 23.335938 91.660156 C 23.335938 93.183594 24.097656 95.203125 26.425781 95.203125 C 28.757812 95.203125 29.519531 93.230469 29.519531 91.660156 L 29.519531 84.082031 L 31.175781 84.082031 L 31.175781 91.929688 C 31.175781 94.796875 29.113281 96.769531 26.382812 96.769531 C 23.648438 96.769531 21.589844 94.796875 21.589844 91.929688 L 21.589844 84.082031 Z M 23.335938 84.082031 "/>
<path style=" stroke:none;fill-rule:nonzero;fill:rgb(10.196078%,32.941176%,56.078431%);fill-opacity:1;" d="M 34.265625 84.082031 L 38.519531 84.082031 C 40.671875 84.082031 42.285156 85.066406 42.285156 87.175781 C 42.285156 88.566406 41.433594 89.460938 40.179688 89.910156 L 40.179688 89.957031 C 41.65625 90.042969 42.820312 91.34375 42.820312 93.003906 C 42.820312 95.203125 40.894531 96.457031 38.476562 96.457031 L 34.265625 96.457031 Z M 35.921875 89.191406 L 38.207031 89.191406 C 39.460938 89.191406 40.492188 88.699219 40.492188 87.355469 C 40.492188 86.367188 39.863281 85.558594 38.519531 85.558594 L 35.878906 85.558594 L 35.878906 89.191406 Z M 35.921875 94.933594 L 38.386719 94.933594 C 39.417969 94.933594 41.027344 94.574219 41.027344 92.824219 C 41.027344 91.34375 40 90.628906 38.386719 90.628906 L 35.921875 90.628906 Z M 35.921875 94.933594 "/>
<path style=" stroke:none;fill-rule:nonzero;fill:rgb(10.196078%,32.941176%,56.078431%);fill-opacity:1;" d="M 52.808594 85.648438 L 48.824219 85.648438 L 48.824219 84.082031 L 58.453125 84.082031 L 58.453125 85.648438 L 54.464844 85.648438 L 54.464844 96.414062 L 52.808594 96.414062 Z M 52.808594 85.648438 "/>
<path style=" stroke:none;fill-rule:nonzero;fill:rgb(10.196078%,32.941176%,56.078431%);fill-opacity:1;" d="M 60.335938 84.082031 L 68.308594 84.082031 L 68.308594 85.648438 L 62.035156 85.648438 L 62.035156 89.328125 L 67.902344 89.328125 L 67.902344 90.898438 L 62.035156 90.898438 L 62.035156 94.84375 L 68.621094 94.84375 L 68.621094 96.414062 L 60.335938 96.414062 Z M 60.335938 84.082031 "/>
<path style=" stroke:none;fill-rule:nonzero;fill:rgb(10.196078%,32.941176%,56.078431%);fill-opacity:1;" d="M 74.9375 84.082031 L 76.460938 84.082031 L 81.746094 96.414062 L 79.773438 96.414062 L 78.519531 93.363281 L 72.652344 93.363281 L 71.441406 96.414062 L 69.472656 96.414062 Z M 77.894531 91.882812 L 75.609375 86.234375 L 75.5625 86.234375 L 73.234375 91.882812 Z M 77.894531 91.882812 "/>
<path style=" stroke:none;fill-rule:nonzero;fill:rgb(10.196078%,32.941176%,56.078431%);fill-opacity:1;" d="M 92.003906 86.726562 C 91.285156 85.828125 90.164062 85.335938 89.046875 85.335938 C 86.269531 85.335938 84.433594 87.535156 84.433594 90.359375 C 84.433594 92.960938 86.132812 95.15625 89.046875 95.15625 C 90.433594 95.15625 91.554688 94.527344 92.269531 93.496094 L 93.660156 94.574219 C 93.300781 95.066406 91.824219 96.726562 89 96.726562 C 85.105469 96.726562 82.640625 93.453125 82.640625 90.359375 C 82.640625 86.503906 85.285156 83.765625 89.046875 83.765625 C 90.660156 83.765625 92.359375 84.394531 93.347656 85.695312 Z M 92.003906 86.726562 "/>
<path style=" stroke:none;fill-rule:nonzero;fill:rgb(10.196078%,32.941176%,56.078431%);fill-opacity:1;" d="M 95.765625 84.082031 L 97.421875 84.082031 L 97.421875 89.191406 L 103.828125 89.191406 L 103.828125 84.082031 L 105.484375 84.082031 L 105.484375 96.414062 L 103.828125 96.414062 L 103.828125 90.761719 L 97.421875 90.761719 L 97.421875 96.414062 L 95.765625 96.414062 Z M 95.765625 84.082031 "/>
<path style=" stroke:none;fill-rule:nonzero;fill:rgb(10.196078%,32.941176%,56.078431%);fill-opacity:1;" d="M 108.753906 84.082031 L 116.726562 84.082031 L 116.726562 85.648438 L 110.457031 85.648438 L 110.457031 89.328125 L 116.324219 89.328125 L 116.324219 90.898438 L 110.457031 90.898438 L 110.457031 94.84375 L 117.039062 94.84375 L 117.039062 96.414062 L 108.753906 96.414062 Z M 108.753906 84.082031 "/>
<path style=" stroke:none;fill-rule:nonzero;fill:rgb(10.196078%,32.941176%,56.078431%);fill-opacity:1;" d="M 119.460938 84.082031 L 123.804688 84.082031 C 126.941406 84.082031 127.746094 85.964844 127.746094 87.535156 C 127.746094 89.101562 126.582031 90.582031 124.699219 90.808594 L 128.195312 96.457031 L 126.089844 96.457031 L 122.953125 91.03125 L 121.070312 91.03125 L 121.070312 96.414062 L 119.414062 96.414062 L 119.414062 84.082031 Z M 121.117188 89.507812 L 123.3125 89.507812 C 124.65625 89.507812 125.953125 89.191406 125.953125 87.535156 C 125.953125 85.875 124.609375 85.558594 123.3125 85.558594 L 121.117188 85.558594 Z M 121.117188 89.507812 "/>
<path style=" stroke:none;fill-rule:nonzero;fill:rgb(10.196078%,32.941176%,56.078431%);fill-opacity:1;" d="M 135.496094 93.8125 C 136.078125 94.707031 137.105469 95.15625 138.09375 95.15625 C 139.167969 95.15625 140.554688 94.441406 140.554688 93.09375 C 140.554688 90.269531 134.464844 92.019531 134.464844 87.21875 C 134.464844 85.785156 135.675781 83.765625 138.628906 83.765625 C 139.972656 83.765625 141.273438 84.035156 142.167969 85.15625 L 140.824219 86.414062 C 140.421875 85.785156 139.570312 85.335938 138.628906 85.335938 C 136.792969 85.335938 136.210938 86.457031 136.210938 87.21875 C 136.210938 90.359375 142.304688 88.476562 142.304688 92.914062 C 142.304688 95.292969 140.378906 96.726562 138.003906 96.726562 C 136.433594 96.726562 134.914062 96.1875 134.0625 95.023438 Z M 135.496094 93.8125 "/>
<path style=" stroke:none;fill-rule:nonzero;fill:rgb(10.196078%,32.941176%,56.078431%);fill-opacity:1;" d="M 144.140625 90.222656 C 144.140625 86.546875 146.78125 83.722656 150.542969 83.722656 C 154.308594 83.722656 156.949219 86.546875 156.949219 90.222656 C 156.949219 93.902344 154.308594 96.726562 150.542969 96.726562 C 146.78125 96.726562 144.140625 93.902344 144.140625 90.222656 Z M 155.203125 90.222656 C 155.203125 87.535156 153.367188 85.292969 150.542969 85.292969 C 147.722656 85.292969 145.886719 87.488281 145.886719 90.222656 C 145.886719 92.960938 147.722656 95.15625 150.542969 95.15625 C 153.367188 95.15625 155.203125 92.914062 155.203125 90.222656 Z M 155.203125 90.222656 "/>
<path style=" stroke:none;fill-rule:nonzero;fill:rgb(10.196078%,32.941176%,56.078431%);fill-opacity:1;" d="M 160.890625 84.082031 L 160.890625 91.660156 C 160.890625 93.183594 161.652344 95.203125 163.980469 95.203125 C 166.3125 95.203125 167.074219 93.230469 167.074219 91.660156 L 167.074219 84.082031 L 168.730469 84.082031 L 168.730469 91.929688 C 168.730469 94.796875 166.667969 96.769531 163.9375 96.769531 C 161.207031 96.769531 159.144531 94.796875 159.144531 91.929688 L 159.144531 84.082031 Z M 160.890625 84.082031 "/>
<path style=" stroke:none;fill-rule:nonzero;fill:rgb(10.196078%,32.941176%,56.078431%);fill-opacity:1;" d="M 171.820312 84.082031 L 176.164062 84.082031 C 179.300781 84.082031 180.105469 85.964844 180.105469 87.535156 C 180.105469 89.101562 178.941406 90.582031 177.0625 90.808594 L 180.554688 96.457031 L 178.449219 96.457031 L 175.316406 91.03125 L 173.433594 91.03125 L 173.433594 96.414062 L 171.777344 96.414062 L 171.777344 84.082031 Z M 173.476562 89.507812 L 175.671875 89.507812 C 177.015625 89.507812 178.316406 89.191406 178.316406 87.535156 C 178.316406 85.875 176.972656 85.558594 175.671875 85.558594 L 173.476562 85.558594 Z M 173.476562 89.507812 "/>
<path style=" stroke:none;fill-rule:nonzero;fill:rgb(10.196078%,32.941176%,56.078431%);fill-opacity:1;" d="M 191.125 86.726562 C 190.410156 85.828125 189.289062 85.335938 188.167969 85.335938 C 185.394531 85.335938 183.554688 87.535156 183.554688 90.359375 C 183.554688 92.960938 185.257812 95.15625 188.167969 95.15625 C 189.558594 95.15625 190.679688 94.527344 191.394531 93.496094 L 192.785156 94.574219 C 192.425781 95.066406 190.945312 96.726562 188.125 96.726562 C 184.226562 96.726562 181.765625 93.453125 181.765625 90.359375 C 181.765625 86.503906 184.40625 83.765625 188.167969 83.765625 C 189.78125 83.765625 191.484375 84.394531 192.46875 85.695312 Z M 191.125 86.726562 "/>
<path style=" stroke:none;fill-rule:nonzero;fill:rgb(10.196078%,32.941176%,56.078431%);fill-opacity:1;" d="M 194.886719 84.082031 L 202.863281 84.082031 L 202.863281 85.648438 L 196.589844 85.648438 L 196.589844 89.328125 L 202.457031 89.328125 L 202.457031 90.898438 L 196.589844 90.898438 L 196.589844 94.84375 L 203.175781 94.84375 L 203.175781 96.414062 L 194.886719 96.414062 Z M 194.886719 84.082031 "/>
<path style=" stroke:none;fill-rule:nonzero;fill:rgb(10.196078%,32.941176%,56.078431%);fill-opacity:1;" d="M 205.953125 82.644531 L 205.144531 82.644531 L 205.144531 82.242188 L 207.160156 82.242188 L 207.160156 82.644531 L 206.398438 82.644531 L 206.398438 84.753906 L 205.953125 84.753906 Z M 205.953125 82.644531 "/>
<path style=" stroke:none;fill-rule:nonzero;fill:rgb(10.196078%,32.941176%,56.078431%);fill-opacity:1;" d="M 207.519531 82.242188 L 208.191406 82.242188 L 208.863281 84.035156 L 209.535156 82.242188 L 210.207031 82.242188 L 210.207031 84.796875 L 209.757812 84.796875 L 209.757812 82.691406 L 208.996094 84.796875 L 208.730469 84.796875 L 207.96875 82.691406 L 207.96875 84.796875 L 207.519531 84.796875 Z M 207.519531 82.242188 "/>
</g>
</svg>
