<?xml version="1.0" encoding="utf-8"?>
<!-- Generator: Adobe Illustrator 23.0.3, SVG Export Plug-In . SVG Version: 6.00 Build 0)  -->
<svg version="1.1" xmlns="http://www.w3.org/2000/svg" xmlns:xlink="http://www.w3.org/1999/xlink" x="0px" y="0px"
	 viewBox="0 0 480 223" style="enable-background:new 0 0 480 223;" xml:space="preserve">
<style type="text/css">
	.st0{fill:#1A548F;}
	.st1{fill:#105691;}
	.st2{fill:#FBC33D;}
</style>
<g id="STS">
	<g>
		<path class="st0" d="M238.5,58.5c-4.8-6.8-13.4-10-22.2-10c-10.4,0-20.7,4.7-20.7,16.3c0,25.4,60.1,10.9,60.1,56
			c0,27.2-21.5,40.4-46.3,40.4c-15.7,0-31.1-4.8-41.5-17.2l17-16.5c5.5,8.4,15,13.2,25,13.2c10.4,0,22.2-5.7,22.2-17.3
			c0-27.7-60.1-11.8-60.1-57.1c0-26.1,23.2-38.3,46.7-38.3c13.2,0,26.5,3.8,36.3,13.1L238.5,58.5z"/>
		<path class="st0" d="M305.9,51.7h-38.8V31.3h100.1v20.4h-38.8v106.2h-22.5V51.7z"/>
		<path class="st0" d="M445.5,58.5c-4.8-6.8-13.4-10-22.2-10c-10.4,0-20.7,4.7-20.7,16.3c0,25.4,60.1,10.9,60.1,56
			c0,27.2-21.5,40.4-46.3,40.4c-15.7,0-31.1-4.8-41.5-17.2l17-16.5c5.5,8.4,15,13.2,25,13.2c10.4,0,22.2-5.7,22.2-17.3
			c0-27.7-60.1-11.8-60.1-57.1c0-26.1,23.2-38.3,46.7-38.3c13.2,0,26.5,3.8,36.3,13.1L445.5,58.5z"/>
	</g>
</g>
<g id="Layer_5">
	<path class="st1" d="M108.4,40.2C125.8,27.8,121,6.9,121,6.9C80.3,13,82.2,47.2,82.2,47.2c-20-11.1-37.5-2.9-37.5-2.9
		C9,62.7,20.9,107.7,20.9,107.7h18.2c-1.2-2.5-1.8-5.1-1.8-8.2c0-9.2,6.3-16.7,14.1-16.7c7.8,0,14.1,7.5,14.1,16.7
		c0,3.1-0.7,5.6-2,8.1h21.2V83c0-1.2,1.4-1.8,2.2-1.1c2.4,2,5.7,3.3,9.4,3.3c7.3,0,13.2-5,13.2-11.1c0-6.1-5.9-11.1-13.2-11.1
		c-3.7,0-7,1.3-9.4,3.3c-0.9,0.8-2.2,0.1-2.2-1.1V49C94.6,42,108.4,40.2,108.4,40.2z"/>
	<path class="st2" d="M130.8,107.6H153c0,0,7.8-32.3-9.2-52.2c-17-19.9-45-10.7-55.8-4.3l0,10.8c2.3-1,4.9-1.5,7.6-1.5
		c9.2,0,16.7,6.3,16.7,14s-7.5,14-16.7,14c-2.8,0-5.4-0.6-7.6-1.6l0,20.8h23.9c1.5,0,2.2,1.7,1.3,2.9c-1.8,2.3-2.9,5.5-2.9,8.9
		c0,7.3,5,13.2,11.1,13.2c6.1,0,11.1-5.9,11.1-13.2c0-3.4-1.1-6.5-2.9-8.9C128.5,109.3,129.3,107.6,130.8,107.6z"/>
	<path class="st1" d="M133.4,111c1.2,2.4,1.9,5.3,1.9,8.3c0,9.2-6.3,16.6-14,16.6c-7.7,0-14-7.4-14-16.6c0-3,0.7-5.8,1.9-8.3H87.8
		v24.5c0,1.2-1.4,1.9-2.3,1.1c-2.4-2-5.7-3.3-9.4-3.3c-7.3,0-13.2,5-13.2,11.1s5.9,11.1,13.2,11.1c3.7,0,7-1.3,9.4-3.3
		c0.9-0.8,2.3-0.1,2.3,1.1v5.9c5.6-0.2,8.8,1.2,17.1,4.6s20.3-4.8,20.3-4.8C142.6,145.9,152,111,152,111H133.4z"/>
	<path class="st2" d="M76.4,130.6c3,0,5.8,0.7,8.2,1.9v-21.6H63.2h-2.4c-1.5,0-2.2-1.7-1.3-2.8c1.9-2.4,3.1-5.6,3.1-9.1
		c0-7.3-5-13.2-11.1-13.2c-6.1,0-11.1,5.9-11.1,13.2c0,3.6,1.2,6.8,3.1,9.1c0.9,1.1,0.1,2.8-1.3,2.8H39H20.4c0,0,9.5,34.9,26.8,47.9
		c0,0,12,8.2,20.3,4.8c8.3-3.4,11.5-4.8,17.1-4.6v-3.3c-2.4,1.2-5.2,1.9-8.2,1.9c-8.9,0-16.1-6.1-16.1-13.5
		C60.3,136.7,67.5,130.6,76.4,130.6z"/>
</g>
<g id="SUB_TEACHER_SOURCE">
	<g>
		<path class="st0" d="M27.9,209.2c1.3,2,3.6,3,5.8,3c2.4,0,5.5-1.6,5.5-4.6c0-6.3-13.6-2.4-13.6-13.1c0-3.2,2.7-7.7,9.3-7.7
			c3,0,5.9,0.6,7.9,3.1l-3,2.8c-0.9-1.4-2.8-2.4-4.9-2.4c-4.1,0-5.4,2.5-5.4,4.2c0,7,13.6,2.8,13.6,12.7c0,5.3-4.3,8.5-9.6,8.5
			c-3.5,0-6.9-1.2-8.8-3.8L27.9,209.2z"/>
		<path class="st0" d="M52.1,187.5v16.9c0,3.4,1.7,7.9,6.9,7.9s6.9-4.4,6.9-7.9v-16.9h3.7v17.5c0,6.4-4.6,10.8-10.7,10.8
			s-10.7-4.4-10.7-10.8v-17.5H52.1z"/>
		<path class="st0" d="M76.5,187.5H86c4.8,0,8.4,2.2,8.4,6.9c0,3.1-1.9,5.1-4.7,6.1v0.1c3.3,0.2,5.9,3.1,5.9,6.8
			c0,4.9-4.3,7.7-9.7,7.7h-9.4V187.5z M80.2,198.9h5.1c2.8,0,5.1-1.1,5.1-4.1c0-2.2-1.4-4-4.4-4h-5.9V198.9z M80.2,211.7h5.5
			c2.3,0,5.9-0.8,5.9-4.7c0-3.3-2.3-4.9-5.9-4.9h-5.5V211.7z"/>
		<path class="st0" d="M117.9,191h-8.9v-3.5h21.5v3.5h-8.9v24h-3.7V191z"/>
		<path class="st0" d="M134.7,187.5h17.8v3.5h-14v8.2h13.1v3.5h-13.1v8.8h14.7v3.5h-18.5V187.5z"/>
		<path class="st0" d="M167.3,187.5h3.4l11.8,27.5h-4.4l-2.8-6.8h-13.1l-2.7,6.8h-4.4L167.3,187.5z M173.9,204.9l-5.1-12.6h-0.1
			l-5.2,12.6H173.9z"/>
		<path class="st0" d="M205.4,193.4c-1.6-2-4.1-3.1-6.6-3.1c-6.2,0-10.3,4.9-10.3,11.2c0,5.8,3.8,10.7,10.3,10.7
			c3.1,0,5.6-1.4,7.2-3.7l3.1,2.4c-0.8,1.1-4.1,4.8-10.4,4.8c-8.7,0-14.2-7.3-14.2-14.2c0-8.6,5.9-14.7,14.3-14.7
			c3.6,0,7.4,1.4,9.6,4.3L205.4,193.4z"/>
		<path class="st0" d="M213.8,187.5h3.7v11.4h14.3v-11.4h3.7V215h-3.7v-12.6h-14.3V215h-3.7V187.5z"/>
		<path class="st0" d="M242.8,187.5h17.8v3.5h-14v8.2h13.1v3.5h-13.1v8.8h14.7v3.5h-18.5V187.5z"/>
		<path class="st0" d="M266.7,187.5h9.7c7,0,8.8,4.2,8.8,7.7c0,3.5-2.6,6.8-6.8,7.3l7.8,12.6h-4.7l-7-12.1h-4.2V215h-3.7V187.5z
			 M270.4,199.6h4.9c3,0,5.9-0.7,5.9-4.4s-3-4.4-5.9-4.4h-4.9V199.6z"/>
		<path class="st0" d="M302.5,209.2c1.3,2,3.6,3,5.8,3c2.4,0,5.5-1.6,5.5-4.6c0-6.3-13.6-2.4-13.6-13.1c0-3.2,2.7-7.7,9.3-7.7
			c3,0,5.9,0.6,7.9,3.1l-3,2.8c-0.9-1.4-2.8-2.4-4.9-2.4c-4.1,0-5.4,2.5-5.4,4.2c0,7,13.6,2.8,13.6,12.7c0,5.3-4.3,8.5-9.6,8.5
			c-3.5,0-6.9-1.2-8.8-3.8L302.5,209.2z"/>
		<path class="st0" d="M321.8,201.2c0-8.2,5.9-14.5,14.3-14.5s14.3,6.3,14.3,14.5c0,8.2-5.9,14.5-14.3,14.5S321.8,209.4,321.8,201.2
			z M346.5,201.2c0-6-4.1-11-10.4-11s-10.4,4.9-10.4,11s4.1,11,10.4,11S346.5,207.2,346.5,201.2z"/>
		<path class="st0" d="M359.2,187.5v16.9c0,3.4,1.7,7.9,6.9,7.9s6.9-4.4,6.9-7.9v-16.9h3.7v17.5c0,6.4-4.6,10.8-10.7,10.8
			s-10.7-4.4-10.7-10.8v-17.5H359.2z"/>
		<path class="st0" d="M383.6,187.5h9.7c7,0,8.8,4.2,8.8,7.7c0,3.5-2.6,6.8-6.8,7.3l7.8,12.6h-4.7l-7-12.1h-4.2V215h-3.7V187.5z
			 M387.3,199.6h4.9c3,0,5.9-0.7,5.9-4.4s-3-4.4-5.9-4.4h-4.9V199.6z"/>
		<path class="st0" d="M426.7,193.4c-1.6-2-4.1-3.1-6.6-3.1c-6.2,0-10.3,4.9-10.3,11.2c0,5.8,3.8,10.7,10.3,10.7
			c3.1,0,5.6-1.4,7.2-3.7l3.1,2.4c-0.8,1.1-4.1,4.8-10.4,4.8c-8.7,0-14.2-7.3-14.2-14.2c0-8.6,5.9-14.7,14.3-14.7
			c3.6,0,7.4,1.4,9.6,4.3L426.7,193.4z"/>
		<path class="st0" d="M435.1,187.5h17.8v3.5h-14v8.2h13.1v3.5h-13.1v8.8h14.7v3.5h-18.5V187.5z"/>
	</g>
</g>
<g id="Layer_4_xA0_Image_1_">
</g>
<g id="TM">
	<g>
		<path class="st0" d="M459.8,184.3H458v-0.9h4.5v0.9h-1.7v4.7h-1V184.3z"/>
		<path class="st0" d="M463.3,183.4h1.5l1.5,4l1.5-4h1.5v5.7h-1v-4.7h0l-1.7,4.7H466l-1.7-4.7h0v4.7h-1V183.4z"/>
	</g>
</g>
</svg>
